{
    "asset" : {
        "generator" : "Khronos glTF Blender I/O v3.2.43",
        "version" : "2.0"
    },
    "scene" : 0,
    "scenes" : [
        {
            "name" : "Scene",
            "nodes" : [
                0
            ]
        }
    ],
    "nodes" : [
        {
            "mesh" : 0,
            "name" : "TQ_ARD-node",
            "translation" : [
                -0.0019398012664169073,
                0.0035103298723697662,
                0.0008001785608939826
            ]
        }
    ],
    "materials" : [
        {
            "doubleSided" : true,
            "name" : "TQ_ARD_front.001",
            "pbrMetallicRoughness" : {
                "baseColorTexture" : {
                    "index" : 0
                },
                "metallicFactor" : 0,
                "roughnessFactor" : 0.5
            }
        },
        {
            "doubleSided" : true,
            "name" : "TQ_ARD_back.001",
            "pbrMetallicRoughness" : {
                "baseColorFactor" : [
                    0.996078372001648,
                    0.9019607901573181,
                    0.6627451181411743,
                    1
                ],
                "metallicFactor" : 0,
                "roughnessFactor" : 0.5
            }
        },
        {
            "doubleSided" : true,
            "name" : "TQ_ARD_edge.001",
            "pbrMetallicRoughness" : {
                "baseColorTexture" : {
                    "index" : 1
                },
                "metallicFactor" : 0,
                "roughnessFactor" : 0.5
            }
        }
    ],
    "meshes" : [
        {
            "name" : "TQ_ARD-geom.001",
            "primitives" : [
                {
                    "attributes" : {
                        "POSITION" : 0,
                        "NORMAL" : 1,
                        "TEXCOORD_0" : 2
                    },
                    "indices" : 3,
                    "material" : 0
                },
                {
                    "attributes" : {
                        "POSITION" : 4,
                        "NORMAL" : 5,
                        "TEXCOORD_0" : 6
                    },
                    "indices" : 7,
                    "material" : 1
                },
                {
                    "attributes" : {
                        "POSITION" : 8,
                        "NORMAL" : 9,
                        "TEXCOORD_0" : 10
                    },
                    "indices" : 11,
                    "material" : 2
                }
            ]
        }
    ],
    "textures" : [
        {
            "sampler" : 0,
            "source" : 0
        },
        {
            "sampler" : 0,
            "source" : 1
        }
    ],
    "images" : [
        {
            "bufferView" : 4,
            "mimeType" : "image/png",
            "name" : "BAJAA_Mesa de trabajo 1"
        },
        {
            "bufferView" : 13,
            "mimeType" : "image/png",
            "name" : "TQ_ARD-I1"
        }
    ],
    "accessors" : [
        {
            "bufferView" : 0,
            "componentType" : 5126,
            "count" : 847,
            "max" : [
                0.1578582525253296,
                0.14188265800476074,
                0.15351462364196777
            ],
            "min" : [
                -0.15331637859344482,
                -0.13667179644107819,
                -0.15766015648841858
            ],
            "type" : "VEC3"
        },
        {
            "bufferView" : 1,
            "componentType" : 5126,
            "count" : 847,
            "type" : "VEC3"
        },
        {
            "bufferView" : 2,
            "componentType" : 5126,
            "count" : 847,
            "type" : "VEC2"
        },
        {
            "bufferView" : 3,
            "componentType" : 5123,
            "count" : 2124,
            "type" : "SCALAR"
        },
        {
            "bufferView" : 5,
            "componentType" : 5126,
            "count" : 630,
            "max" : [
                0.1559886336326599,
                0.13870957493782043,
                0.15161332488059998
            ],
            "min" : [
                -0.15144923329353333,
                -0.13484907150268555,
                -0.15582743287086487
            ],
            "type" : "VEC3"
        },
        {
            "bufferView" : 6,
            "componentType" : 5126,
            "count" : 630,
            "type" : "VEC3"
        },
        {
            "bufferView" : 7,
            "componentType" : 5126,
            "count" : 630,
            "type" : "VEC2"
        },
        {
            "bufferView" : 8,
            "componentType" : 5123,
            "count" : 2124,
            "type" : "SCALAR"
        },
        {
            "bufferView" : 9,
            "componentType" : 5126,
            "count" : 563,
            "max" : [
                0.15684856474399567,
                0.14188265800476074,
                0.15256568789482117
            ],
            "min" : [
                -0.15331631898880005,
                -0.13667179644107819,
                -0.15651774406433105
            ],
            "type" : "VEC3"
        },
        {
            "bufferView" : 10,
            "componentType" : 5126,
            "count" : 563,
            "type" : "VEC3"
        },
        {
            "bufferView" : 11,
            "componentType" : 5126,
            "count" : 563,
            "type" : "VEC2"
        },
        {
            "bufferView" : 12,
            "componentType" : 5123,
            "count" : 1020,
            "type" : "SCALAR"
        }
    ],
    "bufferViews" : [
        {
            "buffer" : 0,
            "byteLength" : 10164,
            "byteOffset" : 0
        },
        {
            "buffer" : 0,
            "byteLength" : 10164,
            "byteOffset" : 10164
        },
        {
            "buffer" : 0,
            "byteLength" : 6776,
            "byteOffset" : 20328
        },
        {
            "buffer" : 0,
            "byteLength" : 4248,
            "byteOffset" : 27104
        },
        {
            "buffer" : 0,
            "byteLength" : 2772407,
            "byteOffset" : 31352
        },
        {
            "buffer" : 0,
            "byteLength" : 7560,
            "byteOffset" : 2803760
        },
        {
            "buffer" : 0,
            "byteLength" : 7560,
            "byteOffset" : 2811320
        },
        {
            "buffer" : 0,
            "byteLength" : 5040,
            "byteOffset" : 2818880
        },
        {
            "buffer" : 0,
            "byteLength" : 4248,
            "byteOffset" : 2823920
        },
        {
            "buffer" : 0,
            "byteLength" : 6756,
            "byteOffset" : 2828168
        },
        {
            "buffer" : 0,
            "byteLength" : 6756,
            "byteOffset" : 2834924
        },
        {
            "buffer" : 0,
            "byteLength" : 4504,
            "byteOffset" : 2841680
        },
        {
            "buffer" : 0,
            "byteLength" : 2040,
            "byteOffset" : 2846184
        },
        {
            "buffer" : 0,
            "byteLength" : 767,
            "byteOffset" : 2848224
        }
    ],
    "samplers" : [
        {
            "magFilter" : 9729,
            "minFilter" : 9987
        }
    ],
    "buffers" : [
        {
            "byteLength" : 2848992,
            "uri" : "data:application/octet-stream;base64,"
        }
    ]
}
